<svg xmlns="http://www.w3.org/2000/svg" viewBox="0 0 32 32">
  <defs>
    <linearGradient id="g" x1="0%" y1="0%" x2="100%" y2="100%">
      <stop offset="0%" stop-color="#00f0ff"/>
      <stop offset="100%" stop-color="#7b2ff7"/>
    </linearGradient>
  </defs>
  <rect width="32" height="32" rx="8" fill="#0a0a0f"/>
  <rect x="2" y="2" width="28" height="28" rx="6" fill="none" stroke="url(#g)" stroke-width="1.5"/>
  <path d="M16 8c-3 0-6 2-7 5l-1 4c0 1.5 1 2.5 2.5 2.5 1 0 1.8-.5 2.2-1.3L14 16h4l1.3 2.2c.4.8 1.2 1.3 2.2 1.3 1.5 0 2.5-1 2.5-2.5l-1-4c-1-3-4-5-7-5z" fill="url(#g)"/>
  <circle cx="12" cy="13" r="1.2" fill="#0a0a0f"/>
  <circle cx="20" cy="13" r="1.2" fill="#0a0a0f"/>
</svg>
